<svg xmlns="http://www.w3.org/2000/svg" width="26" height="25" viewBox="0 0 26 25">
    <g fill="#FFF" fill-rule="nonzero">
        <path d="M0 8.333h5.474V25H0zM24.23 9.582c-1.18-1.295-2.74-1.943-4.68-1.943-.715 0-1.365.088-1.95.265-.584.177-1.077.426-1.48.745-.403.32-.724.617-.962.89-.226.26-.447.563-.664.906V8.032h-5.6l.018.822c.011.548.017 2.238.017 5.068 0 2.831-.011 6.524-.034 11.078h5.6v-9.468c0-.582.062-1.045.187-1.387a3.635 3.635 0 0 1 1.08-1.464c.483-.394 1.081-.591 1.796-.591.976 0 1.694.34 2.153 1.019.46.679.69 1.618.69 2.816V25H26v-9.724c0-2.5-.59-4.397-1.77-5.693zM3.095 0C2.175 0 1.43.263.857.788.286 1.313 0 1.976 0 2.778c0 .79.277 1.451.832 1.982.555.53 1.287.796 2.197.796h.033c.932 0 1.684-.266 2.255-.796.572-.531.852-1.192.84-1.982-.01-.802-.294-1.465-.848-1.99C4.754.263 4.016 0 3.095 0z"/>
    </g>
</svg>
