<svg xmlns="http://www.w3.org/2000/svg" width="22" height="22" viewBox="0 0 22 22">
    <path fill="#FFF" fill-rule="nonzero" d="M21.507 17.4l-3.398-3.405c-.676-.675-1.797-.655-2.497.047L13.9 15.758l-.338-.189c-1.08-.6-2.56-1.423-4.117-2.984C7.884 11.02 7.062 9.535 6.46 8.45c-.063-.115-.124-.226-.184-.33l1.149-1.15.565-.567c.701-.703.72-1.826.045-2.504L4.64.494C3.963-.182 2.842-.162 2.14.541l-.958.965.027.027c-.322.41-.59.884-.79 1.394-.184.487-.298.95-.35 1.415C-.38 8.07 1.32 11.477 5.932 16.1c6.376 6.39 11.514 5.907 11.735 5.883a5.73 5.73 0 0 0 1.416-.356 5.515 5.515 0 0 0 1.387-.788l.02.019.97-.952c.7-.703.72-1.826.046-2.505z"/>
</svg>
